<svg x="0" y="0" width="700" height="350" viewBox="0 0 700 350" xmlns="http://www.w3.org/2000/svg" xmlns:xlink="http://www.w3.org/1999/xlink" xmlns:fi="http://pattern.flaticon.com/"><rect x="0px" y="0px" width="100%" height="100%" opacity="0" fill="#ffffff"/><defs><g transform="matrix(0.0862475261092186 0.02379242330789566 -0.02379242330789566 0.0862475261092186 126.01077270507812 32.590415954589844)" id="L1_0"><path d="M72,10.16h-8c-35.33,0.04-63.96,28.67-64,64c-0.014,1.238,0.26,2.462,0.8,3.576l31.248,62.408L40,466.352    c0.104,4.343,3.656,7.809,8,7.808h40c4.344,0.001,7.896-3.465,8-7.808l7.952-326.208l31.2-62.4    c0.558-1.112,0.848-2.34,0.848-3.584C135.961,38.83,107.33,10.2,72,10.16z M80.192,458.16H55.808l-6.632-272h37.648L80.192,458.16    z M87.2,170.16H48.8l-0.584-24h39.6L87.2,170.16z M96,120.272V90.16H80v40H56v-56H40v46.112L16,72.336    c1.013-25.78,22.2-46.162,48-46.176h8c25.8,0.014,46.987,20.396,48,46.176L96,120.272z"/><path d="M359.481,419.04c0.152-0.176,0.36-0.296,0.504-0.472c21.232-26.096-1.664-78.696-52.128-119.744    S201.24,246.064,180,272.168s1.672,78.696,52.128,119.744c12.521,10.236,26.147,19.04,40.624,26.248H140c-4.418,0-8,3.582-8,8v40    c0,4.418,3.582,8,8,8h76v-16h-68v-24h200v24h-84v16h92c4.418,0,8-3.582,8-8v-40C363.98,423.118,362.225,420.353,359.481,419.04z     M347.529,408.472c-6.624,8.152-21.088,10.264-39.672,5.832c-24.142-6.7-46.536-18.578-65.624-34.808    c-45.712-37.184-62.944-81.088-49.808-97.232c5.818-5.806,13.922-8.715,22.104-7.936c21.072,0,52.328,11.768,83.2,36.904    C343.44,348.424,360.664,392.328,347.529,408.472z"/><rect x="232px" y="458px" width="16px" height="16px"/><path d="M336,391.76c-0.968-10.744-12.312-38.8-48.32-68.088c-30.4-24.712-58.4-33.512-73.144-33.512    c-1.125-0.005-2.249,0.048-3.368,0.16c-4.348,0.439-7.54,4.286-7.168,8.64c0.976,10.752,12.32,38.816,48.32,68.096    c30.4,24.72,58.4,33.488,73.128,33.488c1.352,0.016,2.464-0.04,3.352-0.128C333.168,399.994,336.381,396.132,336,391.76z     M262.401,354.672L262.401,354.672c-16.548-12.672-30.033-28.905-39.456-47.496c20.124,5.446,38.78,15.312,54.608,28.88    c16.546,12.675,30.028,28.911,39.448,47.504C296.877,378.116,278.223,368.247,262.401,354.672z"/><path d="M472,298.16v-80c0-4.418-3.582-8-8-8v-49.368c0.002-13.255-10.742-24.001-23.997-24.003    c-6.365-0.001-12.469,2.527-16.971,7.027l-16,16c-4.52,4.491-7.052,10.605-7.032,16.976v33.368c-4.418,0-8,3.582-8,8v80    c-4.418,0-8,3.582-8,8v145.336c0,13.255,10.745,24,24,24h48c13.255,0,24-10.745,24-24V306.16    C480,301.742,476.419,298.16,472,298.16z M416,176.792c-0.002-2.124,0.842-4.162,2.344-5.664l16-16    c3.125-3.124,8.19-3.123,11.314,0.002c1.501,1.502,2.344,3.539,2.342,5.662v49.368h-32V176.792z M408,226.16h48v72h-48V226.16z     M464,451.496c0,4.418-3.582,8-8,8h-48c-4.418,0-8-3.582-8-8V314.16h64V451.496z"/><path d="M453.656,15.816 442.344,4.504 436,10.848 429.656,4.504 418.344,15.816 424.688,22.16 418.344,28.504     429.656,39.816 436,33.472 442.344,39.816 453.656,28.504 447.313,22.16z"/><path d="M189.656,159.816 178.344,148.504 172,154.848 165.656,148.504 154.344,159.816 160.688,166.16 154.344,172.504     165.656,183.816 172,177.472 178.344,183.816 189.656,172.504 183.313,166.16z"/><path d="M365.656,263.816 354.344,252.504 348,258.848 341.656,252.504 330.344,263.816 336.688,270.16 330.344,276.504     341.656,287.816 348,281.472 354.344,287.816 365.656,276.504 359.313,270.16z"/><path d="M333.656,143.816 322.344,132.504 312,142.848 301.656,132.504 290.344,143.816 300.688,154.16 290.344,164.504     301.656,175.816 312,165.472 322.344,175.816 333.656,164.504 323.313,154.16z"/><path d="M245.656,15.816 234.344,4.504 224,14.848 213.656,4.504 202.344,15.816 212.688,26.16 202.344,36.504     213.656,47.816 224,37.472 234.344,47.816 245.656,36.504 235.313,26.16z"/><rect x="432px" y="338px" width="16px" height="72px"/><rect x="432px" y="426px" width="16px" height="16px"/></g><g transform="matrix(0.09923815727233887 -0.03307938575744629 0.03307938575744629 0.09923815727233887 167.98812866210938 269.9801940917969)" id="L1_1"><path d="M114.18,181.563h-4.31v-34.948c0-4.142-3.357-7.5-7.5-7.5h-0.644v-71.5c0-2.84-1.604-5.437-4.146-6.708l-58.04-29.028   c-2.324-1.162-5.085-1.039-7.297,0.328c-2.212,1.366-3.558,3.78-3.558,6.38v100.528h-0.644c-4.143,0-7.5,3.358-7.5,7.5v34.948   h-4.317c-4.143,0-7.5,3.358-7.5,7.5v196.869c0,4.142,3.357,7.5,7.5,7.5h97.954c4.143,0,7.5-3.358,7.5-7.5V189.063   C121.68,184.921,118.323,181.563,114.18,181.563z M43.687,50.724l43.04,21.526v66.865h-43.04V50.724z M35.544,154.115h59.327   v27.448H35.544V154.115z M106.68,378.432H23.726V196.563h82.954V378.432z"/><path d="M377.205,304.276H133.601c-4.143,0-7.5,3.358-7.5,7.5s3.357,7.5,7.5,7.5h231.671l-1.715,3.565   c-9.421,19.576-29.546,32.226-51.271,32.226H133.601c-4.143,0-7.5,3.358-7.5,7.5s3.357,7.5,7.5,7.5h178.685   c27.453,0,52.884-15.984,64.787-40.722l6.89-14.317c1.119-2.324,0.965-5.06-0.408-7.243   C382.182,305.602,379.784,304.276,377.205,304.276z"/><path d="M116.284,55.149C144.249,29.259,180.653,15,218.792,15c83.214,0,150.914,67.7,150.914,150.914   c0,44.863-19.769,87.106-54.236,115.897c-3.18,2.656-3.604,7.385-0.948,10.564c1.483,1.776,3.613,2.692,5.76,2.692   c1.695,0,3.401-0.572,4.804-1.744c37.891-31.649,59.621-78.088,59.621-127.41C384.706,74.429,310.277,0,218.792,0   c-41.929,0-81.952,15.677-112.699,44.143c-3.039,2.814-3.222,7.559-0.408,10.599C108.498,57.78,113.243,57.963,116.284,55.149z"/><path d="M218.788,46.194c66.016,0,119.724,53.708,119.724,119.724s-53.708,119.724-119.724,119.724   c-29.679,0-58.147-10.938-80.163-30.797c-3.074-2.774-7.817-2.531-10.593,0.545c-2.774,3.075-2.53,7.818,0.546,10.592   c24.776,22.351,56.813,34.66,90.21,34.66c74.287,0,134.724-60.437,134.724-134.724S293.075,31.194,218.788,31.194   c-42.665,0-83.253,20.54-108.572,54.945c-2.456,3.336-1.741,8.031,1.595,10.486c3.336,2.454,8.029,1.741,10.486-1.595   C144.801,64.451,180.873,46.194,218.788,46.194z"/><path d="M301.297,106.834L164.429,243.702c-2.929,2.929-2.929,7.678,0,10.606c1.465,1.464,3.385,2.197,5.304,2.197   s3.839-0.732,5.304-2.197L311.904,117.44c2.929-2.929,2.929-7.678,0-10.606C308.974,103.905,304.226,103.905,301.297,106.834z"/><path d="M206.107,244.628c-2.929,2.929-2.929,7.678,0,10.606c1.465,1.464,3.385,2.197,5.304,2.197s3.839-0.732,5.304-2.197   l102.76-102.76c2.929-2.929,2.929-7.678,0-10.606c-2.93-2.929-7.678-2.929-10.607,0L206.107,244.628z"/></g><path d="m402.022 424.714v47.257c0 4.418-3.582 8-8 8s-8-3.582-8-8v-47.257c0-36.795-29.775-66.571-66.573-66.571-17.411 0-33.209-8.87-42.258-23.729-2.299-3.773-1.103-8.695 2.671-10.993 3.771-2.301 8.694-1.104 10.993 2.671 6.122 10.051 16.812 16.051 28.594 16.051 45.637-.002 82.573 36.93 82.573 82.571zm23.476-146.922c8.058-11.947 7.358-27.499-1.74-38.699l-15.308-18.844c-3.473-4.274-4.605-9.943-3.032-15.165l9.049-30.024c4.138-13.73-1.152-28.389-13.162-36.474l-17.986-12.107c-6.012-4.047-8.777-11.369-6.883-18.222 5.616-20.298-9.332-40.554-30.778-41.469l-7.954-.338c-13.586-.578-24.9-10.057-27.515-23.049l-.561-2.789c-4.446-22.096-29.49-32.849-48.874-21.947-6.727 3.783-15.245 2.684-20.716-2.673l-6.682-6.542c-12.867-12.6-33.803-12.6-46.67 0l-14.598 14.293c-2.526 2.474-5.732 4.09-9.271 4.676l-30.18 4.989c-25.597 4.233-41.747 29.307-34.937 53.762l5.928 21.283c1.877 6.738-.835 13.94-6.751 17.921l-18.323 12.336c-11.899 8.012-17.14 22.535-13.04 36.139l9.156 30.384c1.545 5.128.433 10.695-2.977 14.893l-15.547 19.138c-9.016 11.098-9.709 26.508-1.725 38.345l14.973 22.201c4.003 5.936 3.666 13.677-.838 19.263l-2.217 2.748c-12.031 14.924-10.756 36.313 2.967 49.75 1.558 1.524 3.578 2.284 5.597 2.284 7.111 0 10.73-8.691 5.599-13.716-7.807-7.644-8.539-19.8-1.707-28.275l2.216-2.747c8.939-11.087 9.603-26.459 1.649-38.252l-14.974-22.202c-4.018-5.957-3.665-13.718.878-19.311l15.548-19.138c6.757-8.319 8.955-19.383 5.878-29.597l-9.157-30.385c-2.063-6.846.612-14.18 6.656-18.249l18.322-12.335c11.644-7.836 16.96-22.098 13.23-35.487l-5.928-21.283c-4.366-15.671 6.282-31.064 22.134-33.685l30.181-4.989c6.795-1.123 12.969-4.245 17.854-9.028l14.598-14.294c6.694-6.554 17.588-6.556 24.282 0l6.682 6.543c10.521 10.299 26.869 12.433 39.754 5.186 10.287-5.79 23.119.101 25.345 11.157l.561 2.789c4.07 20.232 21.555 34.986 42.52 35.88l7.954.338c11.168.475 18.907 10.85 16.038 21.217-3.732 13.494 1.641 27.865 13.368 35.761l17.986 12.107c6.155 4.143 8.879 11.611 6.777 18.583l-9.049 30.025c-3.105 10.307-.888 21.473 5.934 29.869l15.308 18.844c4.627 5.695 4.985 13.598.894 19.665l-14.727 21.837c-8.026 11.9-7.357 27.415 1.665 38.605 2.41 2.987 5.092 5.852 6.283 11.315.943 4.317 5.206 7.05 9.522 6.11 4.316-.942 7.052-5.205 6.11-9.522-2.038-9.334-6.722-14.55-9.462-17.947-4.587-5.688-4.93-13.572-.854-19.616zm-81.838 105.993c-57.916 16.11-115.435 3.468-160.12-31.258 14.493-7.597 24.94-22.255 26.314-39.797 68.278 20.158 136.617-31.119 137.165-101.795.005-.178.003-41.551.003-41.729 0-44.112-35.888-80-80-80h-27.448c-27.16 0-52.039 15.521-61.908 38.623-6.027 14.106-3.441 23.54-5.509 34.684-3.399 18.317-18.31 35.691-44.317 51.641-3.766 2.31-4.947 7.235-2.637 11.002 2.31 3.766 7.234 4.948 11.002 2.637 30.033-18.417 47.422-39.398 51.683-62.359 2.382-12.821-.146-20.463 4.491-31.317 7.388-17.291 26.354-28.909 47.195-28.909h27.448c35.29 0 64 28.71 64 64v40.892c0 50.178-40.822 91-91 91-35.572 0-68.094-20.923-82.852-53.303-1.832-4.021-6.577-5.795-10.597-3.962-4.021 1.832-5.795 6.576-3.962 10.597 10.626 23.314 29.091 41.562 51.41 52.216v2.157c0 18.444-14.945 33.342-33.427 33.342-45.733 0-82.573 37.021-82.573 82.571v47.257c0 4.418 3.582 8 8 8s8-3.582 8-8v-47.257c0-36.793 29.775-66.571 66.573-66.571 1.473 0 2.928-.074 4.367-.199 49.027 42.755 115.674 59.981 182.988 41.254 4.257-1.184 6.747-5.595 5.563-9.852-1.184-4.259-5.592-6.751-9.852-5.565z" transform="matrix(0.09902077168226242 0 0 0.09902077168226242 9.416407585144043 206.22384643554688)" id="L1_2"/><g transform="matrix(0.06488505005836487 0 0 0.06488505005836487 253.42758178710938 123.4275894165039)" id="L1_4"><path d="M56,416c-30.872,0-56,25.128-56,56c0,4.424,3.576,8,8,8h96c4.424,0,8-3.576,8-8C112,441.128,86.872,416,56,416z     M16.808,464C19.992,448.36,32.36,436.072,48,432.88V448h16v-15.12c15.64,3.2,28.008,15.48,31.192,31.12H16.808z"/><path d="M472,344h-14.032c-0.44-1.112-0.896-2.216-1.392-3.328l9.928-9.928c3.128-3.128,3.128-8.184,0-11.312l-33.936-33.936    c-1.656-1.656-3.84-2.376-6.008-2.272C439.24,276.496,448,263.32,448,248V40c0-22.056-17.944-40-40-40H40C17.944,0,0,17.944,0,40    v208c0,22.056,17.944,40,40,40h104.4l-30.224,56H112h-12c-15.44,0-28,12.56-28,28s12.56,28,28,28h172c0,4.424,3.576,8,8,8h14.032    c0.44,1.112,0.896,2.216,1.392,3.328l-9.928,9.928c-3.128,3.128-3.128,8.184,0,11.312l33.936,33.936    c3.128,3.128,8.184,3.128,11.312,0l9.928-9.928c1.112,0.496,2.216,0.952,3.328,1.392V472c0,4.424,3.576,8,8,8h48    c4.424,0,8-3.576,8-8v-14.032c1.112-0.44,2.216-0.896,3.328-1.392l9.928,9.928c3.128,3.128,8.184,3.128,11.312,0l33.936-33.936    c3.128-3.128,3.128-8.184,0-11.312l-9.928-9.928c0.496-1.112,0.952-2.216,1.392-3.328H472c4.424,0,8-3.576,8-8v-48    C480,347.576,476.424,344,472,344z M16,40c0-13.232,10.768-24,24-24h368c13.232,0,24,10.768,24,24v168H16V40z M40,272    c-13.232,0-24-10.768-24-24v-24h416v24c0,13.232-10.768,24-24,24h-8h-48h-61.808H157.808H40z M421.152,285.6l-9.824,9.824    c-1.112-0.496-2.216-0.952-3.328-1.392V288C412.632,288,417.008,287.056,421.152,285.6z M344,288v6.032    c-1.112,0.44-2.216,0.896-3.328,1.392L333.248,288H344z M316.92,288l-6.896,6.896L305.328,288H316.92z M272,384H100    c-6.616,0-12-5.384-12-12c0-6.616,5.384-12,12-12h12h6.944H272V384z M132.356,343.992L162.576,288h123.392l12.544,18.408    l-13.016,13.016c-3.128,3.128-3.128,8.184,0,11.312l9.928,9.928c-0.496,1.112-0.952,2.216-1.392,3.328H280H132.356z M464,392    h-11.672c-3.496,0-6.576,2.264-7.632,5.592c-1.216,3.864-2.856,7.8-4.88,11.672c-1.616,3.104-1.032,6.888,1.44,9.36l8.288,8.288    l-22.624,22.624l-8.288-8.288c-2.48-2.472-6.256-3.048-9.36-1.44c-3.872,2.024-7.808,3.664-11.672,4.88    c-3.336,1.064-5.6,4.144-5.6,7.64V464h-32v-11.672c0-3.496-2.264-6.576-5.592-7.632c-3.864-1.216-7.8-2.856-11.672-4.88    c-3.104-1.608-6.888-1.032-9.36,1.44l-8.288,8.288l-22.624-22.624l8.288-8.288c2.472-2.472,3.056-6.256,1.44-9.36    c-2.024-3.872-3.664-7.808-4.88-11.672c-1.064-3.336-4.144-5.6-7.64-5.6H288v-32h11.672c3.496,0,6.576-2.264,7.632-5.592    c1.216-3.864,2.856-7.8,4.88-11.672c1.616-3.104,1.032-6.888-1.44-9.36l-8.288-8.288l22.624-22.624l8.288,8.288    c2.472,2.48,6.256,3.056,9.36,1.44c3.872-2.024,7.808-3.664,11.672-4.88c3.336-1.064,5.6-4.144,5.6-7.64V288h32v11.672    c0,3.496,2.264,6.576,5.592,7.632c3.864,1.216,7.8,2.856,11.672,4.88c3.104,1.616,6.88,1.04,9.36-1.44l8.288-8.288l22.624,22.624    l-8.288,8.288c-2.472,2.472-3.056,6.256-1.44,9.36c2.024,3.872,3.664,7.808,4.88,11.672c1.064,3.336,4.144,5.6,7.64,5.6H464V392z"/><path d="M376,328c-26.472,0-48,21.528-48,48s21.528,48,48,48s48-21.528,48-48S402.472,328,376,328z M376,408    c-17.648,0-32-14.352-32-32s14.352-32,32-32s32,14.352,32,32S393.648,408,376,408z"/><path d="M157.656,61.656l-11.312-11.312l-56,56c-3.128,3.128-3.128,8.184,0,11.312l56,56l11.312-11.312L107.312,112    L157.656,61.656z"/><path d="M333.656,106.344l-56-56l-11.312,11.312L316.688,112l-50.344,50.344l11.312,11.312l56-56    C336.784,114.528,336.784,109.472,333.656,106.344z"/><rect x="131px" y="96px" width="160px" height="16px" transform="matrix(0.4472000002861023 -0.8944000005722046 0.8944000005722046 0.4472000002861023 24.145700454711914 247.10679626464844)"/><rect x="312px" y="160px" width="16px" height="16px"/><rect x="344px" y="160px" width="16px" height="16px"/><rect x="376px" y="160px" width="16px" height="16px"/></g><path d="m489.675 8.318-100.514-8.318-2.475 29.898 55.594 4.6-93.497 93.496c-26.165-21.328-58.594-32.926-92.809-32.926s-66.645 11.598-92.81 32.926l-28.137-28.137 26.479-26.479-21.213-21.213-26.479 26.479-44.567-44.567 50.5-4.179-2.474-29.898-95.42 7.896-7.896 95.42 29.897 2.474 4.179-50.5 44.568 44.568-26.479 26.479 21.213 21.213 26.479-26.479 28.108 28.108c-21.482 26.216-33.164 58.763-33.164 93.106 0 39.323 15.313 76.292 43.119 104.098 24.239 24.239 55.442 38.981 89.098 42.365v52.724h-41.18v30h41.18v40.477h30v-40.477h41.18v-30h-41.18v-52.724c33.655-3.384 64.858-18.126 89.098-42.365 53.864-53.865 57.178-139.429 9.948-197.198l93.473-93.473 4.6 55.594 29.898-2.474zm-150.816 316.851c-22.14 22.139-51.575 34.332-82.885 34.332s-60.746-12.193-82.885-34.332c-45.703-45.703-45.703-120.066 0-165.769 22.139-22.139 51.575-34.332 82.885-34.332 31.309 0 60.745 12.193 82.885 34.332 45.701 45.703 45.701 120.067 0 165.769z" transform="matrix(0.056829944252967834 -0.01704898290336132 0.01704898290336132 0.056829944252967834 304.0969543457031 14.788443565368652)" id="L1_5"/><g transform="matrix(0.0635291263461113 0.024859219789505005 -0.024859219789505005 0.0635291263461113 140.1005096435547 175.37258911132812)" id="L1_6"><path d="m257.484 396.382c-4.143 0-7.5 3.358-7.5 7.5v100.618c0 9.386 15 9.813 15 0v-100.618c0-4.142-3.357-7.5-7.5-7.5z"/><path d="m389.977 430.596c6.356 0 9.878-8.228 5.304-12.803l-19.213-19.213c-2.929-2.929-7.677-2.93-10.607 0-2.929 2.929-2.929 7.677 0 10.606l19.213 19.213c1.464 1.465 3.383 2.197 5.303 2.197z"/><path d="m418.086 440.598c-6.637-6.635-17.547 3.667-10.607 10.606l42.705 42.705c6.784 6.782 17.541-3.673 10.607-10.606z"/><path d="m138.901 398.579-39.096 39.096c-6.933 6.933 3.823 17.388 10.607 10.606l39.096-39.096c2.929-2.929 2.929-7.678 0-10.606-2.929-2.929-7.677-2.929-10.607 0z"/><path d="m75.53 461.95-21.352 21.352c-6.933 6.933 3.823 17.388 10.607 10.606l21.352-21.352c6.638-6.636-3.667-17.543-10.607-10.606z"/><path d="m464.521 417.445c-9.652 0-9.668 15 0 15 9.652 0 9.668-15 0-15z"/><path d="m134.599 470.429c-9.652 0-9.668 15 0 15 9.651 0 9.667-15 0-15z"/><path d="m59.482 420.989c9.652 0 9.668-15 0-15-9.652 0-9.668 15 0 15z"/><path d="m209.032 457.513c-9.652 0-9.668 15 0 15 9.652 0 9.667-15 0-15z"/><path d="m307.484 457.513c-9.652 0-9.668 15 0 15 9.651 0 9.667-15 0-15z"/><path d="m185.215 417.445c-9.652 0-9.668 15 0 15 9.652 0 9.668-15 0-15z"/><path d="m326.308 417.445c-9.652 0-9.668 15 0 15 9.652 0 9.668-15 0-15z"/><path d="m390.998 472.816c-9.652 0-9.668 15 0 15 9.652 0 9.668-15 0-15z"/><path d="m257.39 115.618c4.143 0 7.5-3.358 7.5-7.5v-100.618c0-9.386-15-9.813-15 0v100.618c0 4.142 3.357 7.5 7.5 7.5z"/><path d="m119.594 83.601c-2.929 2.929-2.929 7.677 0 10.606l19.213 19.213c6.783 6.783 17.54-3.673 10.607-10.606l-19.213-19.213c-2.929-2.929-7.677-2.93-10.607 0z"/><path d="m96.788 71.402c6.783 6.783 17.541-3.673 10.607-10.606l-42.704-42.705c-6.636-6.637-17.546 3.667-10.607 10.606z"/><path d="m370.669 115.618c1.919 0 3.839-.732 5.304-2.197l39.096-39.096c6.637-6.637-3.668-17.544-10.607-10.606l-39.096 39.096c-4.574 4.573-1.057 12.803 5.303 12.803z"/><path d="m434.04 52.247c1.919 0 3.839-.732 5.304-2.197l21.352-21.352c6.637-6.637-3.668-17.544-10.607-10.606l-21.352 21.352c-4.574 4.573-1.057 12.803 5.303 12.803z"/><path d="m50.353 94.555c9.652 0 9.668-15 0-15-9.652 0-9.668 15 0 15z"/><path d="m380.276 41.571c9.652 0 9.668-15 0-15-9.652 0-9.668 15 0 15z"/><path d="m455.392 91.011c-9.652 0-9.668 15 0 15 9.652 0 9.668-15 0-15z"/><path d="m305.843 54.487c9.652 0 9.668-15 0-15-9.652 0-9.668 15 0 15z"/><path d="m207.391 54.487c9.652 0 9.667-15 0-15-9.652 0-9.668 15 0 15z"/><path d="m329.659 94.555c9.652 0 9.668-15 0-15-9.652 0-9.668 15 0 15z"/><path d="m188.566 94.555c9.652 0 9.668-15 0-15-9.652 0-9.668 15 0 15z"/><path d="m123.876 39.185c9.652 0 9.668-15 0-15-9.652 0-9.668 15 0 15z"/><path d="m488.271 307.646h-38.483v-26.925h33.855c11.792 0 23.729-8.495 23.729-24.732 0-16.223-11.938-24.711-23.729-24.711h-33.855v-26.925h38.483c11.792 0 23.729-8.495 23.729-24.732 0-16.223-11.938-24.711-23.729-24.711h-62.784c-13.4 0-24.302 11.09-24.302 24.722v14.485c-14.823-23.701-38.972-37.631-68.233-37.631h-41.33c-6.341 0-12.12 2.501-16.451 6.588-4.398-4.462-10.463-7.225-17.151-7.225-12.575 0-22.949 9.768-24.178 22.237-12.038-14.536-30.331-23.834-50.785-23.834h-39.962c-.016 0-.033 0-.049 0-12.654 0-23.074 9.891-24.196 22.497-13.363-13.622-32.717-22.249-52.675-22.249h-41.874c-13.4 0-24.301 11.089-24.301 24.721v154.144c0 11.994 8.351 24.135 24.312 24.135 15.947 0 24.291-12.142 24.291-24.136v-42.366c6.486-.031 13.282-.058 17.572-.058 20.131 0 39.406-8.828 52.633-22.812l-.063 64.987c0 11.994 8.351 24.136 24.312 24.136 15.946 0 24.29-12.142 24.29-24.136v-28.808l38.7 45.072c9.359 10.897 25.361 10.686 35.229.602 4.026 3.745 9.629 6.168 16.754 6.168 7.737 0 13.678-2.862 17.751-7.174 4.309 4.087 9.957 6.537 16.229 6.537 1.25-.005 30.759-.122 42.578-.333 19.802-.355 38.101-7.817 52.918-21.579 5.176-4.807 9.742-10.24 13.679-16.188v14.954c0 13.631 10.901 24.722 24.302 24.722h62.784c7.199 0 13.563-2.866 17.921-8.071 3.746-4.474 5.809-10.391 5.809-16.661-.001-16.221-11.938-24.71-23.73-24.71zm-278.719-29.343c9.524-4.129 17.75-10.357 24.166-18.043v46.189zm20.31 61.839c-1.149.989-7.16 5.61-12.436-.533l-51.891-60.434c-4.431-5.162-13.19-1.745-13.19 4.886v49.056c0 8.695-7.739 9.136-9.29 9.136-1.556 0-9.312-.44-9.312-9.128l.089-91.083c.406-8.414-11.912-11.426-14.642-2.919-6.736 20.991-29.528 36.819-53.017 36.819-6.04 0-16.99.052-25.113.096-4.126.022-7.459 3.374-7.459 7.5v49.827c0 8.695-7.739 9.136-9.291 9.136-1.555 0-9.312-.44-9.312-9.136v-154.144c0-5.27 4.259-9.721 9.301-9.721h41.874c23.085 0 45.913 15.082 53.101 35.082 3.02 8.401 15.012 4.995 14.556-3.313l-.087-22.295c0-5.328 4.122-9.668 9.207-9.721.089.001.174.001.263 0h39.842c27.897 0 50.594 22.332 50.594 49.782 0 23.097-15.946 42.998-38.778 48.396-5.378 1.271-7.565 7.992-3.965 12.185l40.364 47.01c5.913 6.885-.64 12.857-1.408 13.516zm37.458-8.126c0 8.695-7.739 9.136-9.291 9.136-1.555 0-9.312-.44-9.312-9.136v-151.446c0-5.36 4.172-9.722 9.301-9.722s9.302 4.361 9.302 9.722zm220.951 10.074h-62.784c-5.129 0-9.302-4.361-9.302-9.722v-53.436c0-8.791-13.168-10.649-14.87-1.635-6.984 37.021-33.907 62.292-66.994 62.885-11.716.209-41.123.326-42.34.331-6.274 0-9.66-6.261-9.66-12.152v-146.998c0-5.354 4.259-9.877 9.301-9.877h41.33c17.828 0 33.619 6.33 45.664 18.306 12.255 12.183 20.078 29.57 22.625 50.282 1.134 9.196 14.944 8.054 14.944-1.02v-59.422c0-5.36 4.173-9.722 9.302-9.722h62.784c8.309 0 8.729 8.089 8.729 9.711 0 .997-.245 9.732-8.729 9.732h-45.983c-4.143 0-7.5 3.358-7.5 7.5v41.925c0 4.142 3.357 7.5 7.5 7.5h41.355c8.309 0 8.729 8.089 8.729 9.711 0 .997-.245 9.732-8.729 9.732h-41.355c-4.143 0-7.5 3.358-7.5 7.5v41.925c0 4.142 3.357 7.5 7.5 7.5h45.983c8.309 0 8.729 8.089 8.729 9.711 0 .997-.245 9.733-8.729 9.733z"/><path d="m332.951 190.972h-24.529c-4.143 0-7.5 3.358-7.5 7.5v115.057c0 4.033 3.537 7.5 7.546 7.5 12.071-.074 20.662-.156 25.534-.244 28.604-.513 48.58-27.135 48.58-64.742 0-32.39-15.347-65.071-49.631-65.071zm.782 114.815c-5.935 0-11.876.147-17.812.191v-100.006h17.029c25.562 0 34.631 26.973 34.631 50.071.001 28.931-13.918 49.387-33.848 49.744z"/><path d="m215.047 219.033c0-16.729-14.352-30.338-31.991-30.338h-23.21c-4.143 0-7.5 3.358-7.5 7.5v44.971c0 4.142 3.357 7.5 7.5 7.5h23.21c21.98 0 31.991-15.361 31.991-29.633zm-31.991 14.633h-15.71v-29.971h15.71c9.369 0 16.991 6.881 16.991 15.338 0 3.433-1.226 14.633-16.991 14.633z"/><path d="m66.175 188.942h-25.072c-4.143 0-7.5 3.358-7.5 7.5v52.651c0 4.028 3.533 7.5 7.54 7.5 8.124-.043 19.062-.095 25.032-.095 18.729 0 33.967-15.152 33.967-33.777 0-18.626-15.238-33.779-33.967-33.779zm0 52.556c-4.277 0-11.073.026-17.572.057v-37.613h17.572c10.458 0 18.967 8.424 18.967 18.778 0 10.355-8.509 18.778-18.967 18.778z"/></g></defs><g fi:class="KUsePattern"><pattern id="pattern_L1_0" width="350" height="350" patternUnits="userSpaceOnUse"><use xlink:href="#L1_0" x="-350" y="-350"/><use xlink:href="#L1_0" x="0" y="-350"/><use xlink:href="#L1_0" x="350" y="-350"/><use xlink:href="#L1_0" x="-350" y="0"/><use xlink:href="#L1_0" x="0" y="0"/><use xlink:href="#L1_0" x="350" y="0"/><use xlink:href="#L1_0" x="-350" y="350"/><use xlink:href="#L1_0" x="0" y="350"/><use xlink:href="#L1_0" x="350" y="350"/></pattern><rect x="0" y="0" width="100%" height="100%" fill="url(#pattern_L1_0)"/></g><g fi:class="KUsePattern"><pattern id="pattern_L1_1" width="350" height="350" patternUnits="userSpaceOnUse"><use xlink:href="#L1_1" x="-350" y="-350"/><use xlink:href="#L1_1" x="0" y="-350"/><use xlink:href="#L1_1" x="350" y="-350"/><use xlink:href="#L1_1" x="-350" y="0"/><use xlink:href="#L1_1" x="0" y="0"/><use xlink:href="#L1_1" x="350" y="0"/><use xlink:href="#L1_1" x="-350" y="350"/><use xlink:href="#L1_1" x="0" y="350"/><use xlink:href="#L1_1" x="350" y="350"/></pattern><rect x="0" y="0" width="100%" height="100%" fill="url(#pattern_L1_1)"/></g><g fi:class="KUsePattern"><pattern id="pattern_L1_2" width="350" height="350" patternUnits="userSpaceOnUse"><use xlink:href="#L1_2" x="-350" y="-350"/><use xlink:href="#L1_2" x="0" y="-350"/><use xlink:href="#L1_2" x="350" y="-350"/><use xlink:href="#L1_2" x="-350" y="0"/><use xlink:href="#L1_2" x="0" y="0"/><use xlink:href="#L1_2" x="350" y="0"/><use xlink:href="#L1_2" x="-350" y="350"/><use xlink:href="#L1_2" x="0" y="350"/><use xlink:href="#L1_2" x="350" y="350"/></pattern><rect x="0" y="0" width="100%" height="100%" fill="url(#pattern_L1_2)"/></g><g fi:class="KUsePattern"><pattern id="pattern_L1_4" width="350" height="350" patternUnits="userSpaceOnUse"><use xlink:href="#L1_4" x="-350" y="-350"/><use xlink:href="#L1_4" x="0" y="-350"/><use xlink:href="#L1_4" x="350" y="-350"/><use xlink:href="#L1_4" x="-350" y="0"/><use xlink:href="#L1_4" x="0" y="0"/><use xlink:href="#L1_4" x="350" y="0"/><use xlink:href="#L1_4" x="-350" y="350"/><use xlink:href="#L1_4" x="0" y="350"/><use xlink:href="#L1_4" x="350" y="350"/></pattern><rect x="0" y="0" width="100%" height="100%" fill="url(#pattern_L1_4)"/></g><g fi:class="KUsePattern"><pattern id="pattern_L1_5" width="350" height="350" patternUnits="userSpaceOnUse"><use xlink:href="#L1_5" x="-350" y="-350"/><use xlink:href="#L1_5" x="0" y="-350"/><use xlink:href="#L1_5" x="350" y="-350"/><use xlink:href="#L1_5" x="-350" y="0"/><use xlink:href="#L1_5" x="0" y="0"/><use xlink:href="#L1_5" x="350" y="0"/><use xlink:href="#L1_5" x="-350" y="350"/><use xlink:href="#L1_5" x="0" y="350"/><use xlink:href="#L1_5" x="350" y="350"/></pattern><rect x="0" y="0" width="100%" height="100%" fill="url(#pattern_L1_5)"/></g><g fi:class="KUsePattern"><pattern id="pattern_L1_6" width="350" height="350" patternUnits="userSpaceOnUse"><use xlink:href="#L1_6" x="-350" y="-350"/><use xlink:href="#L1_6" x="0" y="-350"/><use xlink:href="#L1_6" x="350" y="-350"/><use xlink:href="#L1_6" x="-350" y="0"/><use xlink:href="#L1_6" x="0" y="0"/><use xlink:href="#L1_6" x="350" y="0"/><use xlink:href="#L1_6" x="-350" y="350"/><use xlink:href="#L1_6" x="0" y="350"/><use xlink:href="#L1_6" x="350" y="350"/></pattern><rect x="0" y="0" width="100%" height="100%" fill="url(#pattern_L1_6)"/></g></svg>